<svg width="213" height="79" viewBox="0 0 213 79" fill="none" xmlns="http://www.w3.org/2000/svg">
<path d="M70.9592 47.4H16.6448C14.7095 47.4 13.1406 48.8148 13.1406 50.56V63.99C13.1406 65.7352 14.7095 67.15 16.6448 67.15H70.9592C72.8945 67.15 74.4634 65.7352 74.4634 63.99V50.56C74.4634 48.8148 72.8945 47.4 70.9592 47.4Z" fill="#1E3A8A"/>
<path d="M66.579 31.6H21.025C19.0897 31.6 17.5208 33.0148 17.5208 34.76V48.19C17.5208 49.9352 19.0897 51.35 21.025 51.35H66.579C68.5143 51.35 70.0832 49.9352 70.0832 48.19V34.76C70.0832 33.0148 68.5143 31.6 66.579 31.6Z" fill="#2563EB"/>
<path d="M62.1988 15.8H25.4051C23.4699 15.8 21.901 17.2148 21.901 18.96V32.39C21.901 34.1352 23.4699 35.55 25.4051 35.55H62.1988C64.1341 35.55 65.703 34.1352 65.703 32.39V18.96C65.703 17.2148 64.1341 15.8 62.1988 15.8Z" fill="#DC2626"/>
<path d="M36.7937 25.28L41.1739 29.23L50.8103 20.54" stroke="white" stroke-width="1.92" stroke-linecap="round" stroke-linejoin="round"/>
<path d="M98.5898 37.5653C98.5216 36.8778 98.229 36.3437 97.7119 35.9631C97.1949 35.5824 96.4932 35.392 95.6068 35.392C95.0045 35.392 94.496 35.4773 94.0812 35.6477C93.6665 35.8125 93.3483 36.0426 93.1267 36.3381C92.9108 36.6335 92.8028 36.9688 92.8028 37.3438C92.7915 37.6562 92.8568 37.929 92.9988 38.1619C93.1466 38.3949 93.3483 38.5966 93.604 38.767C93.8596 38.9318 94.1551 39.0767 94.4903 39.2017C94.8255 39.321 95.1835 39.4233 95.5642 39.5085L97.1324 39.8835C97.8937 40.054 98.5926 40.2812 99.229 40.5653C99.8653 40.8494 100.416 41.1989 100.882 41.6136C101.348 42.0284 101.709 42.517 101.965 43.0795C102.226 43.642 102.36 44.2869 102.365 45.0142C102.36 46.0824 102.087 47.0085 101.547 47.7926C101.013 48.571 100.24 49.1761 99.229 49.608C98.2233 50.0341 97.0102 50.2472 95.5898 50.2472C94.1807 50.2472 92.9534 50.0312 91.9079 49.5994C90.8682 49.1676 90.0557 48.5284 89.4704 47.6818C88.8909 46.8295 88.5869 45.7756 88.5585 44.5199H92.1295C92.1693 45.1051 92.3369 45.5937 92.6324 45.9858C92.9335 46.3722 93.3341 46.6648 93.8341 46.8636C94.3398 47.0568 94.9108 47.1534 95.5471 47.1534C96.1721 47.1534 96.7148 47.0625 97.175 46.8807C97.6409 46.6989 98.0017 46.446 98.2574 46.1222C98.513 45.7983 98.6409 45.4261 98.6409 45.0057C98.6409 44.6136 98.5244 44.2841 98.2915 44.017C98.0642 43.75 97.729 43.5227 97.2858 43.3352C96.8483 43.1477 96.3113 42.9773 95.675 42.8239L93.7744 42.3466C92.3028 41.9886 91.1409 41.429 90.2886 40.6676C89.4363 39.9062 89.013 38.8807 89.0187 37.5909C89.013 36.5341 89.2943 35.6108 89.8625 34.821C90.4363 34.0312 91.2233 33.4148 92.2233 32.9716C93.2233 32.5284 94.3596 32.3068 95.6324 32.3068C96.9278 32.3068 98.0585 32.5284 99.0244 32.9716C99.996 33.4148 100.752 34.0312 101.291 34.821C101.831 35.6108 102.11 36.5256 102.127 37.5653H98.5898ZM104.183 35.5881V32.5455H118.518V35.5881H113.174V50H109.527V35.5881H104.183ZM121.755 50H117.8L123.826 32.5455H128.581L134.598 50H130.644L126.272 36.5341H126.135L121.755 50ZM121.507 43.1392H130.848V46.0199H121.507V43.1392ZM136.699 50V32.5455H148.256V35.5881H140.389V39.7472H147.489V42.7898H140.389V50H136.699ZM150.738 50V32.5455H162.295V35.5881H154.429V39.7472H161.528V42.7898H154.429V50H150.738ZM168.468 32.5455V50H164.777V32.5455H168.468ZM186.103 32.5455V50H182.916L175.322 39.0142H175.194V50H171.504V32.5455H174.742L182.277 43.5227H182.43V32.5455H186.103ZM200.726 38.1875C200.607 37.7727 200.439 37.4062 200.223 37.0881C200.007 36.7642 199.743 36.4915 199.431 36.2699C199.124 36.0426 198.772 35.8693 198.374 35.75C197.982 35.6307 197.547 35.571 197.07 35.571C196.178 35.571 195.394 35.7926 194.718 36.2358C194.047 36.679 193.524 37.3239 193.149 38.1705C192.774 39.0114 192.587 40.0398 192.587 41.2557C192.587 42.4716 192.772 43.5057 193.141 44.358C193.51 45.2102 194.033 45.8608 194.709 46.3097C195.385 46.7528 196.184 46.9744 197.104 46.9744C197.939 46.9744 198.652 46.8267 199.243 46.5312C199.84 46.2301 200.294 45.8068 200.607 45.2614C200.925 44.7159 201.084 44.071 201.084 43.3267L201.834 43.4375H197.334V40.6591H204.638V42.858C204.638 44.392 204.314 45.7102 203.666 46.8125C203.019 47.9091 202.127 48.7557 200.99 49.3523C199.854 49.9432 198.553 50.2386 197.087 50.2386C195.451 50.2386 194.013 49.8778 192.774 49.1562C191.536 48.429 190.57 47.3977 189.877 46.0625C189.189 44.7216 188.845 43.1307 188.845 41.2898C188.845 39.875 189.05 38.6136 189.459 37.5057C189.874 36.392 190.453 35.4489 191.198 34.6761C191.942 33.9034 192.809 33.3153 193.797 32.9119C194.786 32.5085 195.857 32.3068 197.01 32.3068C197.999 32.3068 198.919 32.4517 199.772 32.7415C200.624 33.0256 201.38 33.429 202.039 33.9517C202.703 34.4744 203.246 35.0966 203.666 35.8182C204.087 36.5341 204.357 37.3239 204.476 38.1875H200.726Z" fill="#1E3A8A"/>
<path d="M208.29 36.7472V34.1264H209.572C209.738 34.1264 209.89 34.1607 210.027 34.2294C210.167 34.2981 210.277 34.3975 210.357 34.5277C210.44 34.6555 210.482 34.8118 210.482 34.9964C210.482 35.1811 210.439 35.3385 210.354 35.4688C210.268 35.599 210.155 35.6984 210.013 35.767C209.871 35.8333 209.713 35.8665 209.54 35.8665H208.663V35.3729H209.398C209.498 35.3729 209.583 35.3409 209.654 35.277C209.728 35.2131 209.764 35.1184 209.764 34.9929C209.764 34.8627 209.728 34.7704 209.654 34.7159C209.583 34.6591 209.499 34.6307 209.402 34.6307H208.972V36.7472H208.29ZM209.963 35.5362L210.56 36.7472H209.814L209.256 35.5362H209.963ZM209.317 38.3097C208.924 38.3097 208.556 38.2363 208.212 38.0895C207.869 37.9427 207.567 37.7391 207.307 37.4787C207.046 37.2183 206.843 36.9164 206.696 36.5732C206.549 36.2299 206.476 35.8617 206.476 35.4688C206.476 35.0758 206.549 34.7076 206.696 34.3643C206.843 34.0211 207.046 33.7192 207.307 33.4588C207.567 33.1984 207.869 32.9948 208.212 32.848C208.556 32.7012 208.924 32.6278 209.317 32.6278C209.71 32.6278 210.078 32.7012 210.421 32.848C210.764 32.9948 211.066 33.1984 211.327 33.4588C211.587 33.7192 211.791 34.0211 211.938 34.3643C212.084 34.7076 212.158 35.0758 212.158 35.4688C212.158 35.8617 212.084 36.2299 211.938 36.5732C211.791 36.9164 211.587 37.2183 211.327 37.4787C211.066 37.7391 210.764 37.9427 210.421 38.0895C210.078 38.2363 209.71 38.3097 209.317 38.3097ZM209.317 37.5604C209.705 37.5604 210.057 37.4669 210.371 37.2798C210.689 37.0904 210.941 36.8383 211.128 36.5234C211.315 36.2062 211.408 35.8546 211.408 35.4688C211.408 35.0829 211.314 34.7325 211.124 34.4176C210.937 34.1004 210.685 33.8482 210.368 33.6612C210.053 33.4718 209.703 33.3771 209.317 33.3771C208.933 33.3771 208.583 33.4718 208.266 33.6612C207.948 33.8482 207.696 34.1004 207.509 34.4176C207.322 34.7325 207.229 35.0829 207.229 35.4688C207.229 35.8546 207.322 36.2062 207.509 36.5234C207.696 36.8383 207.948 37.0904 208.266 37.2798C208.583 37.4669 208.933 37.5604 209.317 37.5604Z" fill="#1E3A8A"/>
</svg>

