<svg width="79" height="79" viewBox="0 0 79 79" fill="none" xmlns="http://www.w3.org/2000/svg">
<path d="M63.99 47.4H15.01C13.2648 47.4 11.85 48.8148 11.85 50.56V63.99C11.85 65.7352 13.2648 67.15 15.01 67.15H63.99C65.7352 67.15 67.15 65.7352 67.15 63.99V50.56C67.15 48.8148 65.7352 47.4 63.99 47.4Z" fill="#1E3A8A"/>
<path d="M60.04 31.6H18.96C17.2148 31.6 15.8 33.0148 15.8 34.76V48.19C15.8 49.9352 17.2148 51.35 18.96 51.35H60.04C61.7852 51.35 63.2 49.9352 63.2 48.19V34.76C63.2 33.0148 61.7852 31.6 60.04 31.6Z" fill="#2563EB"/>
<path d="M56.09 15.8H22.91C21.1648 15.8 19.75 17.2148 19.75 18.96V32.39C19.75 34.1352 21.1648 35.55 22.91 35.55H56.09C57.8352 35.55 59.25 34.1352 59.25 32.39V18.96C59.25 17.2148 57.8352 15.8 56.09 15.8Z" fill="#DC2626"/>
<path d="M33.18 25.28L37.13 29.23L45.82 20.54" stroke="white" stroke-width="1.92" stroke-linecap="round" stroke-linejoin="round"/>
</svg>

